<svg xmlns="http://www.w3.org/2000/svg" viewBox="0 0 21.3 27.1"><defs><style>.cls-1{fill:#fff;}</style></defs><title>Asset 11</title><g id="Layer_2" data-name="Layer 2"><g id="Layer_1-2" data-name="Layer 1"><path class="cls-1" d="M21.3,20.4h0v-.2h0a.3.3,0,0,0-.1-.2c0-.1-.1-.1-.1-.2h-.1a.6.6,0,0,0-.6-.3,2.1,2.1,0,0,1-1.2-.4h-.2c-.1-.1-.1-.1-.1-.2h-.2a1.9,1.9,0,0,1-.2-.7h0v-6h-.1a7.3,7.3,0,0,0-3.1-6.2h0L14.8,5h-.2L14,4.7a1.9,1.9,0,0,1-.5-1,5.7,5.7,0,0,0,0-1.3V2.2h-.1a2.7,2.7,0,0,0-2.1-2H9.9a2.8,2.8,0,0,0-2.1,2h0v.2a5.7,5.7,0,0,0-.1,1.3,1.4,1.4,0,0,1-.5,1L6.7,5H6.5L6,5.4H6a7.6,7.6,0,0,0-3.1,6.2h0v6h0c-.1.2-.1.5-.3.7H2.5c0,.1-.1.1-.1.2H2.1a2.1,2.1,0,0,1-1.1.4.9.9,0,0,0-.7.3H.2v.2c-.1,0-.1.1-.1.2a.1.1,0,0,0-.1.1v.2H0a.3.3,0,0,0,.1.2v.2c0,.1,0,.2.1.2h0a1.1,1.1,0,0,0,.8.3H20.2a.9.9,0,0,0,.7-.3h0a.2.2,0,0,0,.2-.2c0-.1.1-.1.1-.2S21.2,20.4,21.3,20.4Z"/><path class="cls-1" d="M10.6,23.2H14c.4,0,.5.1.5.5a4.1,4.1,0,0,1-3.8,3.4,3.9,3.9,0,0,1-3.9-3.4c-.1-.4,0-.5.4-.5Z"/></g></g></svg>