<svg xmlns="http://www.w3.org/2000/svg" viewBox="0 0 22.4 22.4"><defs><style>.cls-1{fill:#fff;}</style></defs><title>Asset 2logut</title><g id="Layer_2" data-name="Layer 2"><g id="Layer_1-2" data-name="Layer 1"><path class="cls-1" d="M21.3,11.2h0a2.4,2.4,0,0,1-.6-3.4h0A2.4,2.4,0,0,0,18.4,4a2.3,2.3,0,0,1-2.9-1.9,2.3,2.3,0,0,0-4.3-1,2.3,2.3,0,0,1-3.4.6A2.4,2.4,0,0,0,4,4.1,2.2,2.2,0,0,1,2.1,6.9a2.3,2.3,0,0,0-1,4.3,2.4,2.4,0,0,1,.6,3.5,2.3,2.3,0,0,0,2.4,3.7,2.3,2.3,0,0,1,2.8,2,2.3,2.3,0,0,0,4.3.9,2.5,2.5,0,0,1,3.5-.6,2.3,2.3,0,0,0,3.7-2.3,2.4,2.4,0,0,1,2-2.9A2.3,2.3,0,0,0,21.3,11.2ZM11.1,16.4a5,5,0,1,1,5-5A5,5,0,0,1,11.1,16.4Z"/></g></g></svg>