<?xml version="1.0" encoding="utf-8"?>
<!-- Generator: Adobe Illustrator 23.0.0, SVG Export Plug-In . SVG Version: 6.00 Build 0)  -->
<svg version="1.1" id="Layer_1" xmlns="http://www.w3.org/2000/svg" xmlns:xlink="http://www.w3.org/1999/xlink" x="0px" y="0px"
	 viewBox="0 0 344 125" style="enable-background:new 0 0 344 125;" xml:space="preserve">
<style type="text/css">
	.st0{fill-rule:evenodd;clip-rule:evenodd;fill:#FFFFFF;}
	.st1{fill:#FFFFFF;}
</style>
<path class="st0" d="M27.2,24.1c1.5-4.2,4-7.9,7.4-10.8c4.5-3.8,10.2-6.2,16.1-6.7c10.6-0.9,20.1,3.9,25.4,13.1
	c1.1,1.9,1,4.2-0.6,5.8c-2,2-5.2,2-7-0.2c-0.5-0.6-0.8-1.2-1.2-1.8c-0.5-0.8-1.1-1.5-1.7-2.2C59.6,15,48.7,13.9,42,19.5
	c-2.3,1.9-3.6,3.5-4.8,5.8c0.5,0.1,1,0.3,1.4,0.5c1.1,0.5,2.1,1,3.1,1.6c1.8,1,4.2,2.8,5.5,4.4c2.7,3.6-0.6,8.5-4.9,7.5
	c-1.1-0.3-2-1-2.9-1.8c-0.9-0.8-1.8-1.5-2.8-2.1c-3.9-2.2-8.8-2.6-13-0.9c-3.1,1.3-5.8,3.4-7.5,6.3c-2.4,4-2.9,9.1-1.2,13.5
	c1.6,4.1,4.6,7.1,8.7,8.8c5.3,2.1,12.5,0.8,17.2-2.4c4.6-3.2,7.6-7.4,10.4-12.2c1.8-3,3.7-6.1,6-8.8c5.8-6.7,12.3-12.3,21.7-12.3
	c4.2,0,8.2,1.2,11.8,3.3c10.1,6.1,13.9,19.3,8.9,29.9c-1.9,4-4.6,6.9-8.2,9.3c-8.9,6-21.4,4.6-28.9-2.9c-2.2-2.2-2-5.6,0.6-7.4
	c2-1.4,4.5-1,6.2,0.7c2.9,2.8,6.5,4,10.4,3.9c4.6-0.2,8.4-2.4,10.7-6.5c3.3-5.9,2.3-14.4-3.7-18.2c-8-5.1-14.9-2-20.6,4.6
	c-2.9,3.3-5,6.9-7.3,10.6c-1.3,2.2-2.7,4.3-4.4,6.3c-1.4,1.6-2.9,3.2-4.4,4.7c-1.7,1.8-5.1,3.9-7.3,5c-12.2,6-27.3,3-34.7-8.9
	c-4.2-6.9-4.8-15.7-1.5-23.1c2.2-5.1,5-8.1,9.7-11.1c1.7-1.1,3.5-1.8,5.4-2.5C23.6,24.5,25.3,24.3,27.2,24.1z"/>
<g>
	<path class="st0" d="M333,109.9l0-1.6c-7.4,0-19.4,3.1-17.7-7.1c4.9-0.1,13.3,0.7,17.2-1.2c4.5-2.2,4.9-6,5-12.4
		c0.1-5.4-0.9-10-6.9-12.1c-3.2-1.1-14.4-1-17.4,0.1c-4.7,1.6-5.9,5.4-6,11.5c0,5.6-0.2,11.3-0.1,16.9c0.1,6.5,2.6,10,8.2,11.2
		c2.9,0.6,14.4,0.5,17.8,0.3L333,109.9z M315.3,93.7c-0.2-3.5-0.7-9.2,1.5-10.7c1.8-1.2,9.7-1.3,11.5,0.1c2.3,1.7,1.7,8.8-0.5,10
		C325.8,94.1,318.1,93.7,315.3,93.7z"/>
	<path class="st0" d="M185.2,109.9l0-1.6c-7.4,0-19.4,3.1-17.7-7.1c14.9-0.4,22,2.6,22.1-13.6c0.1-5.4-0.9-10-6.9-12.1
		c-3.2-1.1-14.4-1-17.4,0.1c-4.8,1.6-5.9,5.5-6,11.6c0,5.5-0.2,11.3-0.1,16.8c0.1,6.5,2.6,10,8.2,11.2c2.9,0.6,14.4,0.5,17.8,0.3
		L185.2,109.9z M167.5,93.7c-0.2-3.5-0.7-9.2,1.5-10.7c1.8-1.2,9.7-1.3,11.5,0.1c2.3,1.7,1.7,8.8-0.5,10
		C178,94.1,170.3,93.7,167.5,93.7z"/>
	<path class="st0" d="M221.4,109.9l0-1.6c-7.4,0-19.4,3.1-17.7-7.1c14.9-0.4,22,2.6,22.1-13.6c0.1-5.4-0.9-10-6.9-12.1
		c-3.2-1.1-14.4-1-17.4,0.1c-4.8,1.6-5.9,5.5-6,11.6c0,5.5-0.2,11.3-0.1,16.8c0.1,6.5,2.6,10,8.2,11.2c2.9,0.6,14.4,0.5,17.8,0.3
		L221.4,109.9z M203.7,93.7c-0.2-3.5-0.7-9.2,1.5-10.7c1.8-1.2,9.7-1.3,11.5,0.1c2.3,1.7,1.7,8.8-0.5,10
		C214.2,94.1,206.5,93.7,203.7,93.7z"/>
	<path class="st0" d="M241.3,74.9c-5.7,0.4-8.9,3.1-9.6,8c-0.6,4.1-0.2,11.9-0.2,16.5c0,6.5-0.5,11.3,4.4,14.2
		c4.1,2.4,11.5,2.2,16.6,1.8c12.1-1,9.3-13.3,9.3-24.9c0-6.8,0.4-10.3-4.4-13.8C253.6,74.1,246.1,74.6,241.3,74.9z M253.8,89.5
		c0,3.2,0,6.4,0,9.5c0,3.2,0.5,6.9-1.6,8.3c-1.6,1-7.2,1-9.5,0.6c-3.9-0.6-3.3-3.7-3.3-7.2c0-3.1,0-6.2,0-9.4c0-3.3-0.5-6.8,1.6-8.3
		c1.5-1.1,7-1,9.2-0.7C254.2,82.9,253.9,85.9,253.8,89.5z"/>
	<path class="st0" d="M269,115.5l8,0c-0.1-6.6,0-13.2,0-19.8c0-11.4-1.5-13.5,6.7-13.5c8.8,0,7.6,0.9,7.6,13.3
		c0,6.7-0.1,13.3,0,19.9l8,0c0-9,0-17.9,0.1-26.7c0.1-12.4-4.6-14-16.2-14c-11.4,0-14.1,2.6-14,13.7C269,97.4,268.8,106.5,269,115.5
		z"/>
	<path class="st0" d="M128,108.2c-4.3,0-10.4,1.1-10.7-4.6c-0.2-5.9,0.2-10.2,0.1-16.8l10.8-0.1l-0.1-5.7l0-1.4l-10.7,0l0-13.7l-8,0
		v32.4c0,14.1,1,17.5,18.7,17L128,108.2z"/>
	<path class="st0" d="M155.9,76.2c-0.3-1.7-0.2-1.2-2.6-1.2c-3.5,0-6.8,0-10.3,0.1c-4.2-0.2-6.8,2.4-8,4.9c-1.5,3-1,7.5-1,11.3
		c0,8-0.2,16.2,0,24.2h7.9c-0.1-7.6,0.1-15.4,0-23c0-3.7-0.7-8.4,2-9.7c2.6-1.3,8.8-0.1,12.1-0.7L155.9,76.2z"/>
</g>
<polygon class="st1" points="58.9,108.8 58.9,51.8 49.8,56.7 49.7,56.7 36.9,63.5 38.4,69.6 47.3,64.8 47.3,108.8 39.3,108.8 
	39.3,118.1 66.9,118.1 66.9,108.8 "/>
</svg>
