<svg xmlns="http://www.w3.org/2000/svg" viewBox="0 0 37.2 19.9"><defs><style>.cls-1{fill:#fff;}</style></defs><title>Asset 3logut</title><g id="Layer_2" data-name="Layer 2"><g id="Layer_1-2" data-name="Layer 1"><path class="cls-1" d="M27.3,0H9.9a10,10,0,0,0,0,19.9H27.3A10,10,0,0,0,27.3,0ZM17.5,4a.9.9,0,0,1,1-1,1,1,0,0,1,1,1v6.5a1,1,0,0,1-1,1,.9.9,0,0,1-1-1Zm1,12.6A5.8,5.8,0,0,1,15,6.3l.6-.2a.9.9,0,0,1,.8.4,1.4,1.4,0,0,1,.2.7,1.6,1.6,0,0,1-.4.7,3.7,3.7,0,0,0-1.4,2.9,3.8,3.8,0,1,0,7.5,0,3.7,3.7,0,0,0-1.4-2.9,1,1,0,0,1-.4-.7.8.8,0,0,1,.2-.7.9.9,0,0,1,.8-.4l.6.2a5.8,5.8,0,0,1-3.6,10.3Z"/></g></g></svg>