<svg xmlns="http://www.w3.org/2000/svg" viewBox="0 0 21.86 21.87"><defs><style>.cls-1{fill:#fff;}</style></defs><title>Asset 1</title><g id="Layer_2" data-name="Layer 2"><g id="Layer_1-2" data-name="Layer 1"><path class="cls-1" d="M8.13,16.81h0L8.77,16l.86-1.17h0A3.19,3.19,0,0,0,10.7,15,3.28,3.28,0,1,0,8.28,9.47L6.46,7.81a5.87,5.87,0,0,1,1.15-1l2.75-2.48H2.21a10.92,10.92,0,0,0,8.73,17.5h3.83L8.12,16.82Zm-1.94-1A5.6,5.6,0,0,1,6,8.19L7.71,9.82a3.18,3.18,0,0,0-.74,2A3.12,3.12,0,0,0,9,14.8l-1.49,2A5.18,5.18,0,0,1,6.19,15.78Z"/><path class="cls-1" d="M10.94,0A10.85,10.85,0,0,0,4.51,2.1H15.59a.27.27,0,0,1,.19.08.27.27,0,0,1,0,.38l-3.89,3.5a5.74,5.74,0,0,1,2.88,9.68,5.83,5.83,0,0,1-2.2,1.36l6,4.77h.51a2.77,2.77,0,0,0,2.77-2.77V10.94A10.94,10.94,0,0,0,10.94,0Z"/></g></g></svg>