<svg xmlns="http://www.w3.org/2000/svg" viewBox="0 0 20.47 18.89"><defs><style>.cls-1{fill:#fff;}</style></defs><title>Asset 4</title><g id="Layer_2" data-name="Layer 2"><g id="Layer_1-2" data-name="Layer 1"><path class="cls-1" d="M6.17,7.81a.68.68,0,0,0,1,.07l6-5.11,6.49,6.5A6.1,6.1,0,0,0,14.8,0h0a1,1,0,0,0-.69.22L6.24,6.85A.68.68,0,0,0,6.17,7.81Z"/><path class="cls-1" d="M9.22,15.65a.73.73,0,0,0-.16-.5.69.69,0,0,0-1-.08l0,0-.89.68,1,1L9,16.1A.67.67,0,0,0,9.22,15.65Z"/><path class="cls-1" d="M5.49,11.87a.69.69,0,0,0-1-.08l0,0-.73.56,1,1,.71-.53A.69.69,0,0,0,5.49,11.87Z"/><path class="cls-1" d="M12.66,9.24a.74.74,0,0,1,1,0l3.09,3.09,1.71-1.72h0l.19-.18L13,4.75,8.08,9A2.13,2.13,0,0,1,5.3,5.74l4.93-4.13A6,6,0,0,0,5.67,0,6.1,6.1,0,0,0,2,10.63H2l.72.71.87-.66a2.14,2.14,0,0,1,2.77,3.25l0,0-.56.43.36.36,1-.79a2.16,2.16,0,0,1,1.54-.5,2.18,2.18,0,0,1,1.46.74,2.16,2.16,0,0,1-.23,3l0,0-.73.55,1.1,1.1,3.27-3.29-3.1-3.1a.72.72,0,0,1,0-1,.71.71,0,0,1,1,0l3.1,3.09,1.2-1.21-3.09-3.09A.74.74,0,0,1,12.66,9.24Z"/></g></g></svg>