<svg xmlns="http://www.w3.org/2000/svg" viewBox="0 0 18.28 17.64"><defs><style>.cls-1{fill:#fff;}</style></defs><title>Asset 3</title><g id="Layer_2" data-name="Layer 2"><g id="Layer_1-2" data-name="Layer 1"><path class="cls-1" d="M17.35,17.51c-1.35.34-2.18.06-2.62-1.17a1.87,1.87,0,0,0-1-.92c-2-.91-4-1.69-6-2.67-.11-2.53-.1-5.06,0-7.59,2.08-1,4.26-1.85,6.35-2.84a.93.93,0,0,0,.4-.36C15.58.22,15.4.18,17.35.39c0,2.06,0,4.15,0,6.23a1.59,1.59,0,0,0,.34.9,2.12,2.12,0,0,1,0,2.92,1.53,1.53,0,0,0-.3.76C17.32,13.3,17.35,15.4,17.35,17.51Z"/><path class="cls-1" d="M5.71,17.57H3.9V12.81c-.66,0-1.24,0-1.82,0a1.91,1.91,0,0,1-2.05-2Q0,9,0,7.18A1.9,1.9,0,0,1,2,5.12c1.2,0,2.4,0,3.68,0Z"/><rect class="cls-1" x="0.33" width="11.53" height="1.76" rx="0.88"/></g></g></svg>