<svg xmlns="http://www.w3.org/2000/svg" viewBox="0 0 22.55 22.55"><defs><style>.cls-1{fill:#fff;}</style></defs><title>Asset 5</title><g id="Layer_2" data-name="Layer 2"><g id="Layer_1-2" data-name="Layer 1"><path class="cls-1" d="M11.28,0A11.28,11.28,0,1,0,22.55,11.28,11.28,11.28,0,0,0,11.28,0Zm4.64,6.77H13.73a3.54,3.54,0,0,1,.92,1.79h1.27v1.51H14.67a3.89,3.89,0,0,1-1.42,2.41,4.47,4.47,0,0,1-2.7,1h-.27l0,.1,5.07,5.15v.12h-3L7.27,13.61V11.52h3a2.47,2.47,0,0,0,1.37-.39,2.08,2.08,0,0,0,.83-1.06H5.58V8.56h6.9a2.07,2.07,0,0,0-.77-1.05,2.22,2.22,0,0,0-1.34-.4H5.58V5.26H15.92Z"/></g></g></svg>