<svg xmlns="http://www.w3.org/2000/svg" viewBox="0 0 22.08 22.08"><defs><style>.cls-1{fill:#fff;}</style></defs><title>Asset 2</title><g id="Layer_2" data-name="Layer 2"><g id="Layer_1-2" data-name="Layer 1"><path class="cls-1" d="M11,0a11,11,0,1,0,11,11A11,11,0,0,0,11,0Zm1,17.42a1.37,1.37,0,0,1-1,.43,1.47,1.47,0,0,1-1.46-1.46,1.37,1.37,0,0,1,.43-1,1.41,1.41,0,0,1,1-.42,1.43,1.43,0,0,1,1.45,1.45A1.41,1.41,0,0,1,12,17.42ZM14.5,9.16a9.19,9.19,0,0,1-1.28,1.47,4.13,4.13,0,0,0-.89,1,2.24,2.24,0,0,0-.25,1.08v.55H10v-.78A3.08,3.08,0,0,1,10.33,11a6.25,6.25,0,0,1,1.31-1.48,7,7,0,0,0,1-1,1.77,1.77,0,0,0,.29-1,1.64,1.64,0,0,0-.5-1.22A2,2,0,0,0,11,5.81a1.89,1.89,0,0,0-1.35.5,3.07,3.07,0,0,0-.74,1.21L7,6.72a4.55,4.55,0,0,1,1.4-2A3.83,3.83,0,0,1,11,3.83a4.45,4.45,0,0,1,2.07.47,3.48,3.48,0,0,1,1.42,1.29A3.54,3.54,0,0,1,15,7.44,3,3,0,0,1,14.5,9.16Z"/></g></g></svg>