<svg xmlns="http://www.w3.org/2000/svg" viewBox="0 0 25.03 24.55"><defs><style>.cls-1{fill:#fff;}</style></defs><title>Asset 7</title><g id="Layer_2" data-name="Layer 2"><g id="Layer_1-2" data-name="Layer 1"><path class="cls-1" d="M15.83,4.61c-.5-.83.14-1.32.57-1.87C17.07,1.86,17.77,1,18.54,0l1.31,4.42c.26-.17.46-.32.77,0s.24.52,0,.8L25,6.51l-5.29,4.06a.58.58,0,0,1-.52.09c-1-.2-1.92-.35-2.86-.58a.91.91,0,0,0-1,.29c-1.92,2-3.86,3.89-5.79,5.84l-.24.24c-.26.23-.52.59-.88.25s-.08-.67.19-.94c1.93-1.94,3.85-3.9,5.81-5.81a1.35,1.35,0,0,0,.47-1.51c-.24-.85-.34-1.73-.5-2.59a2.21,2.21,0,0,1,.78-1.36C15.42,4.45,15.48,4.77,15.83,4.61Z"/><path class="cls-1" d="M19.67,12.08a1.71,1.71,0,0,1-.71.16,1.65,1.65,0,0,1-.42-.05L17.59,12,17,11.9a7.33,7.33,0,0,1,.49,2.65A7.54,7.54,0,1,1,13.11,7.7c0-.15-.06-.31-.08-.46s-.09-.49-.13-.74a2.37,2.37,0,0,1,.34-1.39,10,10,0,1,0,6.43,7Z"/><path class="cls-1" d="M15.21,11.86,13.58,13.5a3.5,3.5,0,0,1,.15,1,3.62,3.62,0,0,1-3.61,3.62A3.69,3.69,0,0,1,9,18a1.48,1.48,0,0,1-1.72-.28,1.56,1.56,0,0,1-.53-1.13,1.59,1.59,0,0,1,.08-.5,3.72,3.72,0,0,1-.34-1.53,3.62,3.62,0,0,1,4.94-3.36c.53-.53,1.06-1.07,1.6-1.59a5.68,5.68,0,0,0-2.95-.82,5.77,5.77,0,1,0,5.12,3.11Z"/></g></g></svg>