<svg xmlns="http://www.w3.org/2000/svg" viewBox="0 0 22.59 16.12"><defs><style>.cls-1{fill:#fff;}</style></defs><title>Asset 9</title><g id="Layer_2" data-name="Layer 2"><g id="Layer_1-2" data-name="Layer 1"><path class="cls-1" d="M19.12,0H3.47A3.47,3.47,0,0,0,0,3.47v9.18a3.47,3.47,0,0,0,3.47,3.47H19.12a3.48,3.48,0,0,0,3.47-3.47V3.47A3.47,3.47,0,0,0,19.12,0ZM14.59,4.19H12.82a3,3,0,0,1,.74,1.45h1V6.87h-1a3.13,3.13,0,0,1-1.15,2,3.64,3.64,0,0,1-2.18.82H10l0,.08,4.11,4.17V14h-.93a3.51,3.51,0,0,1-2.5-1.05L7.79,10a.78.78,0,0,1-.21-.52V8.79A.76.76,0,0,1,8.33,8H10a2,2,0,0,0,1.11-.31,1.7,1.7,0,0,0,.68-.86H6.21V5.64H11.8a1.74,1.74,0,0,0-.63-.84,1.78,1.78,0,0,0-1.08-.33H7a.76.76,0,0,1-.75-.75h0A.75.75,0,0,1,7,3h7.63Z"/></g></g></svg>