<svg xmlns="http://www.w3.org/2000/svg" viewBox="0 0 62.5 62.5"><defs><style>.cls-1{fill:#6b458c;}</style></defs><title>Asset 4</title><g id="Layer_2" data-name="Layer 2"><g id="Layer_1-2" data-name="Layer 1"><path class="cls-1" d="M31.2,62.5A31.3,31.3,0,1,1,62.5,31.2,31.3,31.3,0,0,1,31.2,62.5Zm0-56A24.8,24.8,0,1,0,56,31.2,24.8,24.8,0,0,0,31.2,6.5Z"/><path class="cls-1" d="M41.7,46a2.8,2.8,0,0,1-2.2-1L19,24.5A3.2,3.2,0,0,1,23.5,20L44,40.5A3.1,3.1,0,0,1,44,45,2.9,2.9,0,0,1,41.7,46Z"/><path class="cls-1" d="M21.2,46A2.8,2.8,0,0,1,19,45a3.1,3.1,0,0,1,0-4.5L39.5,20A3.2,3.2,0,0,1,44,24.5L23.5,45A2.9,2.9,0,0,1,21.2,46Z"/></g></g></svg>