<svg xmlns="http://www.w3.org/2000/svg" viewBox="0 0 61 61"><defs><style>.cls-1{fill:#6b458c;}</style></defs><title>Asset 8</title><g id="Layer_2" data-name="Layer 2"><g id="Layer_1-2" data-name="Layer 1"><path class="cls-1" d="M52.4,61H8.6A8.5,8.5,0,0,1,0,52.4V8.6A8.5,8.5,0,0,1,8.6,0H42.4a3.5,3.5,0,0,1,3.5,3.5A3.5,3.5,0,0,1,42.4,7H8.6A1.6,1.6,0,0,0,7,8.6V52.4A1.6,1.6,0,0,0,8.6,54H52.4A1.6,1.6,0,0,0,54,52.4V19.5a3.5,3.5,0,0,1,7,0V52.4A8.5,8.5,0,0,1,52.4,61Z"/><path class="cls-1" d="M33,31.5a3.5,3.5,0,0,1-2.5-1,3.7,3.7,0,0,1,0-5l24-24a3.7,3.7,0,0,1,5,0,3.7,3.7,0,0,1,0,5l-24,24A3.5,3.5,0,0,1,33,31.5Z"/><path class="cls-1" d="M24,40.5a3.5,3.5,0,0,1-2.5-1,3.7,3.7,0,0,1,0-5l2-2a3.5,3.5,0,0,1,5,5l-2,2A3.5,3.5,0,0,1,24,40.5Z"/></g></g></svg>