<svg xmlns="http://www.w3.org/2000/svg" viewBox="0 0 60.3 59.8"><defs><style>.cls-1{fill:#6b458c;}</style></defs><title>Asset 7</title><g id="Layer_2" data-name="Layer 2"><g id="Layer_1-2" data-name="Layer 1"><path class="cls-1" d="M30.3,59.8l-8.4-8.4H9.3A9.3,9.3,0,0,1,0,42.1V9.3A9.3,9.3,0,0,1,9.3,0H51.1a9.3,9.3,0,0,1,9.2,9.3V42.1a9.2,9.2,0,0,1-9.2,9.3H38.7ZM9.3,6.5A2.7,2.7,0,0,0,6.5,9.3V42.1a2.7,2.7,0,0,0,2.8,2.8H24.5l5.8,5.7L36,44.9H51.1a2.7,2.7,0,0,0,2.7-2.8V9.3a2.7,2.7,0,0,0-2.7-2.8Z"/><path class="cls-1" d="M40,23.2H19.1a3.1,3.1,0,0,1,0-6.1H40a3.1,3.1,0,0,1,0,6.1Z"/><path class="cls-1" d="M27.2,34.2H19.1a3.1,3.1,0,0,1,0-6.1h8.1a3.1,3.1,0,1,1,0,6.1Z"/></g></g></svg>