<svg xmlns="http://www.w3.org/2000/svg" viewBox="0 0 60.3 59.8"><defs><style>.cls-1{fill:#6b458c;}</style></defs><title>Asset 6</title><g id="Layer_2" data-name="Layer 2"><g id="Layer_1-2" data-name="Layer 1"><path class="cls-1" d="M30.3,59.8l-8.4-8.4H9.3A9.3,9.3,0,0,1,0,42.1V9.3A9.3,9.3,0,0,1,9.3,0H51.1a9.3,9.3,0,0,1,9.2,9.3V42.1a9.2,9.2,0,0,1-9.2,9.3H38.7ZM9.3,6.5A2.7,2.7,0,0,0,6.5,9.3V42.1a2.7,2.7,0,0,0,2.8,2.8H24.5l5.8,5.7L36,44.9H51.1a2.7,2.7,0,0,0,2.7-2.8V9.3a2.7,2.7,0,0,0-2.7-2.8Z"/><path class="cls-1" d="M39,18.2H35.9a15.2,15.2,0,0,0-1-2.8H39a2.1,2.1,0,0,0,2.1-2.1A2.1,2.1,0,0,0,39,11H19.8a2.1,2.1,0,0,0-2.1,2.2,2.1,2.1,0,0,0,2.1,2.1h7.7a4.8,4.8,0,0,1,3.7,2.9H19.8a2.1,2.1,0,0,0-2.1,2.1,2.1,2.1,0,0,0,2.1,2.2H31.6a4.5,4.5,0,0,1-4.3,2.9q-3.2.2-6.3,0c-1.2,0-2.4,0-2.9,1.5s.5,2.1,1.4,2.8l12.4,10c2.1,1.6,3.1,1.8,4,.6s.5-2.2-1.5-3.8l-8.2-6.6.8-.3c4.3-.2,7.4-2.2,8.9-6.3.1-.3.1-.5.2-.8H39a2.1,2.1,0,0,0,2.1-2.2A2.1,2.1,0,0,0,39,18.2Z"/></g></g></svg>