<svg xmlns="http://www.w3.org/2000/svg" viewBox="0 0 176.5 73.5"><defs><style>.cls-1{fill:#6f42c1;}.cls-2{fill:#6f42c1;}.cls-3{fill:#fff;}</style></defs><title>Asset 1</title><g id="Layer_2" data-name="Layer 2"><g id="Layer_1-2" data-name="Layer 1"><rect class="cls-1" width="176.5" height="73.47" rx="3.7"/><rect class="cls-2" width="176.5" height="68.29" rx="3.6"/><path class="cls-3" d="M11.8,34.7h8v2.5h-8Z"/><path class="cls-3" d="M36.4,43a10.7,10.7,0,0,1-4-3.9A9.9,9.9,0,0,1,31,33.7a10,10,0,0,1,1.4-5.5,10.4,10.4,0,0,1,4-3.8A10.8,10.8,0,0,1,42,23a10.6,10.6,0,0,1,4.5.8A8.5,8.5,0,0,1,50,26.2l-2,1.9a7.8,7.8,0,0,0-5.8-2.5A8.2,8.2,0,0,0,38,26.7a7,7,0,0,0-3,2.9,7.8,7.8,0,0,0-1,4.1,8.3,8.3,0,0,0,1,4.1,6.8,6.8,0,0,0,3,2.8,8.2,8.2,0,0,0,4.2,1.1A7.4,7.4,0,0,0,48,39.2l2,1.9a9.5,9.5,0,0,1-3.5,2.4A11.8,11.8,0,0,1,36.4,43Z"/><path class="cls-3" d="M55.7,43.2a7.1,7.1,0,0,1-2.9-2.8,8.6,8.6,0,0,1,0-8.4,7.8,7.8,0,0,1,2.9-2.8A8.9,8.9,0,0,1,60,28.1a8.8,8.8,0,0,1,4.2,1.1A7.8,7.8,0,0,1,67.1,32a8.6,8.6,0,0,1,0,8.4,7.1,7.1,0,0,1-2.9,2.8A8.8,8.8,0,0,1,60,44.3,8.9,8.9,0,0,1,55.7,43.2Zm7-2.1a5.2,5.2,0,0,0,1.9-2,5.4,5.4,0,0,0,.7-2.9,5.4,5.4,0,0,0-.7-2.9,5.2,5.2,0,0,0-1.9-2,6,6,0,0,0-2.7-.7,6.4,6.4,0,0,0-2.8.7,5.2,5.2,0,0,0-1.9,2,6.4,6.4,0,0,0,0,5.8,5.2,5.2,0,0,0,1.9,2,5.3,5.3,0,0,0,2.8.7A5,5,0,0,0,62.7,41.1Z"/><path class="cls-3" d="M72.2,22H75V44.1H72.2Z"/><path class="cls-3" d="M80.5,22h2.9V44.1H80.5Z"/><path class="cls-3" d="M99.6,29.7a6.3,6.3,0,0,1,1.8,4.9v9.5H98.6V42a3.8,3.8,0,0,1-2,1.7,7.5,7.5,0,0,1-3.1.6A6.5,6.5,0,0,1,89.2,43a4.4,4.4,0,0,1-.1-6.7c1-.9,2.6-1.3,4.9-1.3h4.5v-.6a3.8,3.8,0,0,0-1.1-2.8,4.1,4.1,0,0,0-3.1-1,8.7,8.7,0,0,0-2.8.5,8.4,8.4,0,0,0-2.3,1.2L88,30.2a7.7,7.7,0,0,1,3-1.5,10.5,10.5,0,0,1,3.6-.6A7.3,7.3,0,0,1,99.6,29.7ZM96.8,41.4a4.4,4.4,0,0,0,1.7-2.1V37.1H94.1c-2.5,0-3.7.8-3.7,2.4a2.2,2.2,0,0,0,1,1.9,3.7,3.7,0,0,0,2.5.7A6.5,6.5,0,0,0,96.8,41.4Z"/><path class="cls-3" d="M119.2,29.1a8.1,8.1,0,0,1,2.9,2.9,9.3,9.3,0,0,1,0,8.4,7.4,7.4,0,0,1-2.9,2.9,8,8,0,0,1-4.1,1,6.2,6.2,0,0,1-3.1-.7,5,5,0,0,1-2.4-1.9v8.2h-2.9V28.3h2.7v2.5a6.9,6.9,0,0,1,2.5-2,7.9,7.9,0,0,1,3.2-.7A9.2,9.2,0,0,1,119.2,29.1Zm-1.6,12a5.2,5.2,0,0,0,1.9-2,5.4,5.4,0,0,0,.7-2.9,5.4,5.4,0,0,0-.7-2.9,5.2,5.2,0,0,0-1.9-2,6.1,6.1,0,0,0-2.8-.7,5,5,0,0,0-4.6,2.7,6.5,6.5,0,0,0-.7,2.9,5.4,5.4,0,0,0,.7,2.9,5.2,5.2,0,0,0,1.9,2,5,5,0,0,0,2.7.7A5.1,5.1,0,0,0,117.6,41.1Z"/><path class="cls-3" d="M127.9,43.8a7.3,7.3,0,0,1-2.8-1.4l1.1-2.2a8.9,8.9,0,0,0,2.6,1.2,10.3,10.3,0,0,0,3,.4c2.5,0,3.8-.7,3.8-2.1a1.7,1.7,0,0,0-.5-1.2,5.2,5.2,0,0,0-1.3-.6l-2.2-.4a16.1,16.1,0,0,1-3.1-.7,5.7,5.7,0,0,1-2.1-1.3,3.5,3.5,0,0,1-.8-2.6,4.1,4.1,0,0,1,1.8-3.5,8.3,8.3,0,0,1,4.8-1.3,16.5,16.5,0,0,1,3.1.4,7.8,7.8,0,0,1,2.6,1.1l-1.2,2.2a8.5,8.5,0,0,0-4.6-1.2,4.9,4.9,0,0,0-2.7.6,1.7,1.7,0,0,0-1,1.6,1.7,1.7,0,0,0,.5,1.2,3,3,0,0,0,1.4.6l2.2.5,3.1.7a5.3,5.3,0,0,1,2,1.3,3.3,3.3,0,0,1,.8,2.5,3.9,3.9,0,0,1-1.8,3.4,8.2,8.2,0,0,1-5,1.3A15,15,0,0,1,127.9,43.8Z"/><path class="cls-3" d="M156.3,37.2H143.4a4.9,4.9,0,0,0,1.9,3.3,5.6,5.6,0,0,0,3.9,1.3,6,6,0,0,0,4.5-1.9l1.6,1.8a5.8,5.8,0,0,1-2.7,1.9,7.8,7.8,0,0,1-3.5.7,9.3,9.3,0,0,1-4.5-1,7.6,7.6,0,0,1-3-2.9,8.4,8.4,0,0,1-1-4.2,8.7,8.7,0,0,1,1-4.2,7.5,7.5,0,0,1,2.8-2.8,8.1,8.1,0,0,1,4.1-1.1,7.5,7.5,0,0,1,4,1.1,6.9,6.9,0,0,1,2.8,2.8,8.8,8.8,0,0,1,1,4.3Zm-11.2-5.4a4.8,4.8,0,0,0-1.7,3.3h10.2a5.7,5.7,0,0,0-1.6-3.3,5.3,5.3,0,0,0-3.5-1.2A4.9,4.9,0,0,0,145.1,31.8Z"/></g></g></svg>