<svg xmlns="http://www.w3.org/2000/svg" viewBox="0 0 176.5 73.5"><defs><style>.cls-1{fill:#6f42c1;}.cls-2{fill:#6f42c1;}.cls-3{fill:#fff;}</style></defs><title>Asset 2</title><g id="Layer_2" data-name="Layer 2"><g id="Layer_1-2" data-name="Layer 1"><rect class="cls-1" width="176.5" height="73.47" rx="3.7"/><rect class="cls-2" width="176.5" height="68.29" rx="3.6"/><path class="cls-3" d="M30.8,34.9H25.4v5.3H22.9V34.9H17.4V32.5h5.5V27.1h2.5v5.4h5.4Z"/><path class="cls-3" d="M59.2,41.5v2.6H44V23.2H58.8v2.6H47v6.4H57.5v2.6H47v6.7Z"/><path class="cls-3" d="M73.3,44.1l-4.5-6-4.7,6H60.9L67.2,36l-6-7.7h3.2L68.8,34l4.3-5.7h3.2l-6,7.7,6.3,8.1Z"/><path class="cls-3" d="M92.2,29.1A7.4,7.4,0,0,1,95.1,32a8.2,8.2,0,0,1,1,4.2,8.2,8.2,0,0,1-1,4.2,6.8,6.8,0,0,1-2.9,2.9,7.8,7.8,0,0,1-4.1,1,6.4,6.4,0,0,1-3.1-.7,5,5,0,0,1-2.4-1.9v8.2H79.7V28.3h2.8v2.5a5.9,5.9,0,0,1,2.4-2,8.3,8.3,0,0,1,3.2-.7A8.9,8.9,0,0,1,92.2,29.1Zm-1.6,12a4.6,4.6,0,0,0,1.9-2,5.4,5.4,0,0,0,.7-2.9,5.4,5.4,0,0,0-.7-2.9,4.6,4.6,0,0,0-1.9-2,5.6,5.6,0,0,0-5.4,0,5.2,5.2,0,0,0-1.9,2,5.4,5.4,0,0,0-.7,2.9,6.5,6.5,0,0,0,.6,2.9,4.8,4.8,0,0,0,2,2,5.6,5.6,0,0,0,5.4,0Z"/><path class="cls-3" d="M110.7,29.7a6.3,6.3,0,0,1,1.8,4.9v9.5h-2.7V42a4.4,4.4,0,0,1-2.1,1.7,7.5,7.5,0,0,1-3.1.6,6.5,6.5,0,0,1-4.3-1.3,4.3,4.3,0,0,1-1.6-3.4,4,4,0,0,1,1.5-3.3,7.5,7.5,0,0,1,4.9-1.3h4.5v-.6a3.4,3.4,0,0,0-1.1-2.8,4.1,4.1,0,0,0-3.1-1,8.7,8.7,0,0,0-2.8.5,6.6,6.6,0,0,0-2.2,1.2l-1.2-2.1a7.3,7.3,0,0,1,2.9-1.5,10.5,10.5,0,0,1,3.6-.6A7.3,7.3,0,0,1,110.7,29.7Zm-2.8,11.7a3.9,3.9,0,0,0,1.7-2.1V37.1h-4.4q-3.6,0-3.6,2.4a2.3,2.3,0,0,0,.9,1.9,4,4,0,0,0,2.6.7A6.4,6.4,0,0,0,107.9,41.4Z"/><path class="cls-3" d="M131.1,29.9a7.1,7.1,0,0,1,1.7,5.1v9.1H130V35.3a4.8,4.8,0,0,0-1.1-3.4,4.2,4.2,0,0,0-3.2-1.2,5,5,0,0,0-3.7,1.4,5.3,5.3,0,0,0-1.3,3.9v8.1h-2.9V28.3h2.8v2.4a4.8,4.8,0,0,1,2.3-1.9,8.9,8.9,0,0,1,3.4-.7A6.5,6.5,0,0,1,131.1,29.9Z"/><path class="cls-3" d="M153.2,22V44.1h-2.8V41.6a5.9,5.9,0,0,1-2.4,2,6.8,6.8,0,0,1-3.2.7,7.8,7.8,0,0,1-4.1-1,6.8,6.8,0,0,1-2.9-2.9,8.2,8.2,0,0,1-1-4.2,8.2,8.2,0,0,1,1-4.2,7.4,7.4,0,0,1,2.9-2.9,8.9,8.9,0,0,1,4.1-1,6.4,6.4,0,0,1,3.1.7,5,5,0,0,1,2.4,1.9V22Zm-5.5,19.1a4.8,4.8,0,0,0,2-2,7.3,7.3,0,0,0,0-5.8,4.8,4.8,0,0,0-2-2,5.6,5.6,0,0,0-5.4,0,4.6,4.6,0,0,0-1.9,2,5.4,5.4,0,0,0-.7,2.9,5.4,5.4,0,0,0,.7,2.9,4.6,4.6,0,0,0,1.9,2,5.6,5.6,0,0,0,5.4,0Z"/></g></g></svg>