<svg id="Layer_1" data-name="Layer 1" xmlns="http://www.w3.org/2000/svg" viewBox="0 0 61.2 57.6"><defs><style>.cls-1{fill:#805aa5;}.cls-2{fill:#5e437a;}</style></defs><title>1</title><path class="cls-1" d="M30.6,57.3A28.5,28.5,0,1,1,59.1,28.8,28.6,28.6,0,0,1,30.6,57.3Zm0-51.2A22.7,22.7,0,1,0,53.3,28.8,22.7,22.7,0,0,0,30.6,6.1Z"/><path class="cls-2" d="M16,39.5a2.1,2.1,0,0,1-1.1-.4,2,2,0,0,1-.6-2.8L24.7,21l9.8,9.2,8.6-10.6a2.1,2.1,0,0,1,2.9-.3,2,2,0,0,1,.2,2.8L34.9,36l-9.6-8.9L17.6,38.6A2.2,2.2,0,0,1,16,39.5Z"/><circle class="cls-1" cx="35.2" cy="34.6" r="2.8"/><circle class="cls-1" cx="15.6" cy="37.9" r="2.8"/><circle class="cls-1" cx="45.6" cy="19.8" r="2.8"/><circle class="cls-1" cx="24.9" cy="23.2" r="2.8"/></svg>