<svg id="Layer_1" data-name="Layer 1" xmlns="http://www.w3.org/2000/svg" viewBox="0 0 64 64"><defs><style>.cls-1{fill:#15eeff;}.cls-2{fill:#1e88e5;}</style></defs><title>kp MANISH</title><path class="cls-1" d="M54.4,43.4,24.7,32,54.4,20.6a4.9,4.9,0,0,0,2.7-6.2,4.8,4.8,0,0,0-6.2-2.7L9.6,27.6a4.7,4.7,0,0,0,0,8.8L50.9,52.3a5.1,5.1,0,0,0,1.7.3,4.8,4.8,0,0,0,4.5-3A4.9,4.9,0,0,0,54.4,43.4Z"/><circle class="cls-2" cx="11.4" cy="32" r="11.1"/><circle class="cls-2" cx="52.6" cy="16.1" r="11.1"/><circle class="cls-2" cx="52.6" cy="47.9" r="11.1"/></svg>