<?xml version="1.0"?>
<svg xmlns="http://www.w3.org/2000/svg" xmlns:xlink="http://www.w3.org/1999/xlink" version="1.1" id="Capa_1" x="0px" y="0px" viewBox="0 0 512 512" style="enable-background:new 0 0 512 512;" xml:space="preserve" width="512px" height="512px" class=""><g><circle style="fill:#CE8238" cx="256" cy="256" r="256" data-original="#FFD400" class="" data-old_color="#FFD400"/><path style="fill:#CE8238" d="M512,256c0-8.131-0.396-16.169-1.138-24.106l-80.243-80.244l-88.052,96.291l-96.291-96.291  L81.382,317.471l97.505,97.505L158.5,431.063l80.352,80.352C244.521,511.79,250.236,512,256,512C397.385,512,512,397.385,512,256z" data-original="#FFB000" class="active-path" data-old_color="#FFB000"/><polygon style="fill:#F2F6FC;" points="382.181,103.212 265.725,103.212 265.725,317.471 430.618,317.471 430.618,151.65 " data-original="#F2F6FC" class=""/><polygon style="fill:#DCE1EB;" points="382.181,151.65 430.618,151.65 382.181,103.212 " data-original="#DCE1EB"/><polygon style="fill:#FFFFFF;" points="197.838,103.212 81.382,103.212 81.382,317.471 246.275,317.471 246.275,151.65 " data-original="#FFFFFF" class=""/><polygon style="fill:#E9EDF5;" points="197.838,151.65 246.275,151.65 197.838,103.212 " data-original="#E9EDF5"/><polygon style="fill:#65BA53" points="296.219,177.685 158.5,177.685 158.5,431.064 353.5,431.064 353.5,234.967 " data-original="#00C8C8" class="" data-old_color="#00C8C8"/><polygon style="fill:#65BA53" points="353.5,234.967 296.219,177.685 255.571,177.685 255.571,431.063 353.5,431.063 " data-original="#1CADB5" class="" data-old_color="#1CADB5"/><polygon style="fill:#64E1DC" points="296.219,234.967 353.5,234.967 296.219,177.685 " data-original="#64E1DC" class=""/><polygon style="fill:#FFFFFF;" points="238.41,388.618 186.191,336.399 212.355,310.236 238.41,336.292 299.646,275.056   325.808,301.219 " data-original="#FFFFFF" class=""/><polygon style="fill:#F2F6FC;" points="299.646,275.056 255.571,319.13 255.571,371.456 325.808,301.219 " data-original="#F2F6FC" class=""/></g> </svg>
