<svg xmlns="http://www.w3.org/2000/svg" viewBox="0 0 53.4 57.2"><defs><style>.cls-1{fill:#009688;}.cls-2{fill:#0b5e42;}.cls-3{fill:#fff;}</style></defs><title>Asset 2</title><g id="Layer_2" data-name="Layer 2"><g id="Layer_1-2" data-name="Layer 1"><path class="cls-1" d="M23.5,0,0,13.5V41.7L24.8,53.9l4.4-2.6h.1l7.8-4.6V41.3l-7.9,4.1V27.2l5.4-3v24L39.9,45V21.1l4.9-3.2V43.4L49.1,41V12.6ZM21.9,47.6,3.6,39V19l18.2,9Zm3.8-25.4L8.1,13.4l5.7-3.3,17.9,8.4ZM37.5,15,20.2,6.3l3.7-2,17.3,8.4Z"/><circle class="cls-2" cx="39.9" cy="43.7" r="13.5"/><path class="cls-3" d="M46.3,43.5a1.8,1.8,0,0,0-2.5,0l-2.1,2.1V37.3A1.7,1.7,0,0,0,40,35.6a1.8,1.8,0,0,0-1.8,1.7v8.2l-2-2A1.8,1.8,0,0,0,33.7,46l5.1,5.1a1.3,1.3,0,0,0,.9.4,1.7,1.7,0,0,0,1.6-.4l5-5.1A1.8,1.8,0,0,0,46.3,43.5Z"/></g></g></svg>