<svg id="Layer_1" data-name="Layer 1" xmlns="http://www.w3.org/2000/svg" viewBox="0 0 57.2 60"><defs><style>.cls-1{fill:#aed581;}.cls-2{fill:#446d23;}.cls-3{fill:#558b2f;}.cls-4{fill:#fff;}</style></defs><title>documents</title><path class="cls-1" d="M11.3,58.8.2,47.7H9.5c1.3,0,1.8.5,1.8,1.7v9.4Z"/><path class="cls-2" d="M45.8,8a6.7,6.7,0,0,0-6.9-6.9H7A6.9,6.9,0,0,0,0,8V41.4a3.1,3.1,0,0,0,3.1,3.1h9.8a2.3,2.3,0,0,1,1.6,2.4V56a2.8,2.8,0,0,0,2.8,2.9H44.1a1.8,1.8,0,0,0,1.7-1.8ZM21,52.9h-.5v-6a8.1,8.1,0,0,0-6.3-8.2,9.5,9.5,0,0,0-2.1-.2H6V8.1c0-.8.2-1,1-1H38.9c.6,0,.9.1.9.9V52.9Z"/><circle class="cls-3" cx="43.2" cy="34.7" r="13.5"/><path class="cls-4" d="M50.2,32.6H45.1v-5a2,2,0,0,0-2-2,1.9,1.9,0,0,0-1.9,2v5H36.1a2,2,0,0,0-2,2h0a2,2,0,0,0,2,2h5.1v5a1.9,1.9,0,0,0,1.9,2,2,2,0,0,0,2-2v-5h5.1a2,2,0,0,0,2-2h0A2,2,0,0,0,50.2,32.6Z"/><rect class="cls-2" x="9.7" y="15.2" width="25.6" height="4.29" rx="2.1"/><rect class="cls-2" x="9.7" y="24.1" width="13.4" height="4.29" rx="2.1"/></svg>