<svg xmlns="http://www.w3.org/2000/svg" viewBox="0 0 148.5 144"><defs><style>.cls-1{fill:#6b458c;}</style></defs><title>Asset 3icons</title><g id="Layer_2" data-name="Layer 2"><g id="Layer_1-2" data-name="Layer 1"><path class="cls-1" d="M140.5,40.6a7.5,7.5,0,0,0-7.5,7.5V121a8,8,0,0,1-8,8H23a8,8,0,0,1-8-8V21.7A6.7,6.7,0,0,1,21.7,15h83.5a7.6,7.6,0,0,0,7.5-7.5A7.6,7.6,0,0,0,105.2,0H21.7A21.7,21.7,0,0,0,0,21.7V121a23,23,0,0,0,23,23H125a23,23,0,0,0,23-23V48.1A7.5,7.5,0,0,0,140.5,40.6Z"/><path class="cls-1" d="M134,3,62,75a8.5,8.5,0,0,0,0,12,8.4,8.4,0,0,0,12,0l72-72A8.5,8.5,0,0,0,134,3Z"/></g></g></svg>