<svg id="Layer_1" data-name="Layer 1" xmlns="http://www.w3.org/2000/svg" viewBox="0 0 61.2 57.6"><defs><style>.cls-1{fill:#5e437a;}.cls-2{fill:#9475bc;}</style></defs><title>1</title><path class="cls-1" d="M30.8,57.3A28.5,28.5,0,1,1,59.3,28.8,28.6,28.6,0,0,1,30.8,57.3Zm0-51.2A22.7,22.7,0,1,0,53.4,28.8,22.7,22.7,0,0,0,30.8,6.1Z"/><path class="cls-1" d="M35.9,23.9H33A8.7,8.7,0,0,0,31.6,21H37a1.7,1.7,0,1,0,0-3.4H15.9A1.7,1.7,0,0,0,16,21h9.1a4.7,4.7,0,0,1,4.4,2.9H15.9a1.7,1.7,0,0,0-1.7,1.7,1.6,1.6,0,0,0,1.7,1.6H29.6a4.7,4.7,0,0,1-4.5,3.4l-6.8-.3a1.9,1.9,0,0,0-1.8,1.3,2,2,0,0,0,.6,2.2l13.3,9.9a1.9,1.9,0,0,0,1,.3,1.6,1.6,0,0,0,1.3-.6,1.7,1.7,0,0,0-.3-2.4l-9.6-7.2h2.3a8.2,8.2,0,0,0,8-6.7h2.8a1.6,1.6,0,0,0,1.7-1.6A1.7,1.7,0,0,0,35.9,23.9Z"/><path class="cls-2" d="M38.4,17c3.1.2,6.1,1,7.9,4.2a6.1,6.1,0,0,1-1,7.6c-1.2,1.3-2.6,2.5-3.9,3.7a5.1,5.1,0,0,0-1.7,3.2c-.2,1.4-.8,2-2.1,2a2,2,0,0,1-2.2-2,5.7,5.7,0,0,1,1.4-4.8c1.1-1.3,2.5-2.4,3.8-3.7s1.9-2.2,1.3-3.8a3.6,3.6,0,0,0-3.7-2.2c-2.2-.1-3.7,1.1-4.5,3.3l-.3,1.1A2.2,2.2,0,0,1,30.8,27a2.4,2.4,0,0,1-2-2.3,6.6,6.6,0,0,1,1.7-4.3A9.2,9.2,0,0,1,37,17.1Z"/><path class="cls-2" d="M40.7,42.1A2.9,2.9,0,0,1,37.6,45a3.1,3.1,0,0,1-2.9-3A3.1,3.1,0,0,1,38,39,3,3,0,0,1,40.7,42.1Z"/></svg>