<svg xmlns="http://www.w3.org/2000/svg" viewBox="0 0 46.7 53.6"><defs><style>.cls-1{fill:#a0132b;}.cls-2{fill:none;}.cls-3{fill:#ef3f4c;}.cls-4{fill:#fff;}</style></defs><title>Asset 3</title><g id="Layer_2" data-name="Layer 2"><g id="Layer_1-2" data-name="Layer 1"><circle class="cls-1" cx="35.6" cy="25.5" r="11.1"/><path class="cls-2" d="M20.6,25.5A15,15,0,0,1,31.8,11,14.8,14.8,0,0,0,21.5,6.8,15,15,0,0,0,6.6,21.9c0,5.7,8.4,17,14.9,23.5a75,75,0,0,0,6.2-7.1A15,15,0,0,1,20.6,25.5Z"/><path class="cls-3" d="M21.5,45.4C15,38.9,6.6,27.6,6.6,21.9A15,15,0,0,1,21.5,6.8,14.8,14.8,0,0,1,31.8,11a15.8,15.8,0,0,1,3.8-.5,13.9,13.9,0,0,1,4.6.8A21.4,21.4,0,0,0,21.5,0,21.7,21.7,0,0,0,0,21.9C0,33.3,17.3,49.7,19.2,51.6l2.3,2,2.2-2A133,133,0,0,0,34,40.4a15.2,15.2,0,0,1-6.3-2.1A75,75,0,0,1,21.5,45.4Z"/><path class="cls-4" d="M41.2,20.9h0a1.3,1.3,0,0,0-2,0l-5.1,5.9-2-2a1.4,1.4,0,0,0-2.1,0,1.5,1.5,0,0,0,0,2l3.1,3.1a1.5,1.5,0,0,0,1.9,0l.3-.3,5.9-6.7A1.3,1.3,0,0,0,41.2,20.9Z"/></g></g></svg>