<?xml version="1.0"?>
<svg xmlns="http://www.w3.org/2000/svg" height="512px" viewBox="0 -6 512 512" width="512px" class=""><g transform="matrix(0.859027 -6.60424e-32 6.60424e-32 0.859027 36.0891 35.2433)"><path d="m0 340.679688h384v160h-384zm0 0" fill="#fba61f" data-original="#FBA61F" class="" style="fill:#5E437A" data-old_color="#fba61f"/><path d="m0 180.679688h384v128h-384zm0 0" fill="#ffcb5a" data-original="#FFCB5A" class="" style="fill:#FFCB5A" data-old_color="#ffcb5a"/><path d="m512 468.679688h-96v-32h64v-352h-99.886719v-32h131.886719zm0 0" fill="#62808c" data-original="#62808C" class=""/><path d="m421.488281 132.679688-64-64 64-64c6.238281-6.238282 16.382813-6.238282 22.625 0 6.238281 6.242187 6.238281 16.382812 0 22.625l-41.378906 41.375 41.378906 41.375c6.238281 6.242187 6.238281 16.386718 0 22.625-6.242187 6.257812-16.371093 6.257812-22.625 0zm0 0" fill="#77959e" data-original="#77959E" class="active-path" data-old_color="#77959e" style="fill:#A0132B"/><g fill="#ffcb5a"><path d="m0 116.679688h352v32h-352zm0 0" data-original="#FFCB5A" class="" style="fill:#FFCB5A" data-old_color="#FFCB5A"/><path d="m0 52.679688h32v32h-32zm0 0" data-original="#FFCB5A" class="" style="fill:#FFCB5A" data-old_color="#FFCB5A"/><path d="m64 52.679688h32v32h-32zm0 0" data-original="#FFCB5A" class="" style="fill:#FFCB5A" data-old_color="#FFCB5A"/><path d="m128 52.679688h192v32h-192zm0 0" data-original="#FFCB5A" class="" style="fill:#FFCB5A" data-old_color="#FFCB5A"/></g></g> </svg>
