<svg id="Layer_1" data-name="Layer 1" xmlns="http://www.w3.org/2000/svg" viewBox="0 0 61.2 57.6"><defs><style>.cls-1{fill:#009688;}.cls-2{fill:#0b5e42;}</style></defs><title>1</title><path class="cls-1" d="M30.8,57.3A28.5,28.5,0,1,1,59.3,28.8,28.6,28.6,0,0,1,30.8,57.3Zm0-51.2A22.7,22.7,0,1,0,53.4,28.8,22.7,22.7,0,0,0,30.8,6.1Z"/><path class="cls-1" d="M38.3,23.9h-3A7.1,7.1,0,0,0,33.9,21h5.4a1.7,1.7,0,1,0,0-3.4h-21a1.7,1.7,0,0,0-1.7,1.7A1.7,1.7,0,0,0,18.3,21h9.1a4.7,4.7,0,0,1,4.4,2.9H18.2a1.8,1.8,0,0,0-1.7,1.7,1.7,1.7,0,0,0,1.7,1.6H32a4.9,4.9,0,0,1-4.5,3.4l-6.8-.3a2,2,0,0,0-1.9,1.3,2,2,0,0,0,.6,2.2l13.3,9.9a1.9,1.9,0,0,0,1,.3,2,2,0,0,0,1.4-.6,1.7,1.7,0,0,0-.4-2.4l-9.6-7.2h2.3a8.2,8.2,0,0,0,8-6.7h2.9a1.6,1.6,0,0,0,1.6-1.6A1.7,1.7,0,0,0,38.3,23.9Z"/><path class="cls-2" d="M33.8,35.8l-4-4.3a2,2,0,0,1-.2-2.4,1.8,1.8,0,0,1,2.6-.1l2.5,2.7h.2l7.2-6.7a2,2,0,0,1,2.4-.2,1.8,1.8,0,0,1,.1,2.6l-9.2,8.4A1.1,1.1,0,0,1,33.8,35.8Z"/></svg>