<svg xmlns="http://www.w3.org/2000/svg" viewBox="0 0 35.4 35.4"><defs><style>.cls-1{fill:#FFBF68;}.cls-2{fill:#FFAA1D;}</style></defs><title>Asset 1</title><g id="Layer_2" data-name="Layer 2"><g id="Layer_1-2" data-name="Layer 1"><path class="cls-1" d="M18.9,21.8l-1.2-8.9-6.9,6.8c-1.4,1.5-1,4.1.6,5.5a.1.1,0,0,0,.1.1C14.7,28.1,18.9,21.8,18.9,21.8Z"/><path class="cls-2" d="M17.7,0A17.7,17.7,0,1,0,35.4,17.7,17.7,17.7,0,0,0,17.7,0Zm0,32.1A14.4,14.4,0,1,1,32.1,17.7,14.4,14.4,0,0,1,17.7,32.1Z"/><path class="cls-2" d="M28.7,16.2l-9-9a1.3,1.3,0,0,0-1.8,0,1.5,1.5,0,0,0,0,1.8l1,.9-8.7,8.6a5.1,5.1,0,0,0,0,7.2h0a5.1,5.1,0,0,0,7.2,0l8.7-8.6.8.9a1.6,1.6,0,0,0,.9.3,1.4,1.4,0,0,0,.9-.3A1.3,1.3,0,0,0,28.7,16.2ZM15.6,23.9a2.5,2.5,0,0,1-3.6,0h0a2.5,2.5,0,0,1,0-3.6l8.6-8.5,3.6,3.6Z"/></g></g></svg>