<svg xmlns="http://www.w3.org/2000/svg" viewBox="0 0 58.2 59.3"><defs><style>.cls-1{fill:#009688;}.cls-2{fill:#0b5e42;}.cls-3{fill:#fff;}</style></defs><title>Asset 6icons</title><g id="Layer_2" data-name="Layer 2"><g id="Layer_1-2" data-name="Layer 1"><path class="cls-1" d="M40.7,26.6a6.8,6.8,0,0,0-8.2.2,12.2,12.2,0,0,1-14.8,0,6.8,6.8,0,0,0-8.2-.2A23.8,23.8,0,0,0,0,45.6V49a.7.7,0,0,0,.7.7H49.5a.7.7,0,0,0,.7-.7V45.6A23.8,23.8,0,0,0,40.7,26.6Z"/><path class="cls-2" d="M25.1,0A12.7,12.7,0,0,0,12.4,12.7a12.3,12.3,0,0,0,2,6.8,12.7,12.7,0,0,0,21.4,0,13.2,13.2,0,0,0,2-6.8A12.7,12.7,0,0,0,25.1,0Z"/><circle class="cls-2" cx="44.6" cy="45.8" r="13.5"/><path class="cls-3" d="M51.1,43.7H46.7V39.3a2.1,2.1,0,1,0-4.1,0v4.4H38.1a2.3,2.3,0,0,0-2.4,2.1,2.3,2.3,0,0,0,2.4,2.1h4.5v4.4a2.1,2.1,0,1,0,4.1,0V47.9h4.4a2.3,2.3,0,0,0,2.4-2.1A2.3,2.3,0,0,0,51.1,43.7Z"/></g></g></svg>