<svg xmlns="http://www.w3.org/2000/svg" viewBox="0 0 57.2 60"><defs><style>.cls-1{fill:#446d23;}.cls-2{fill:#558b2f;}.cls-3{fill:#aed581;}.cls-4{fill:#fff;}</style></defs><title>Asset 5icons</title><g id="Layer_2" data-name="Layer 2"><g id="Layer_1-2" data-name="Layer 1"><path class="cls-1" d="M43.1,24h0a3.3,3.3,0,0,1,3.3,3.3V50.8a0,0,0,0,1,0,0H39.8a0,0,0,0,1,0,0V27.3A3.3,3.3,0,0,1,43.1,24Z" transform="matrix(-1, 0, 0, -1, 86.17, 74.78)"/><path class="cls-1" d="M31.4,31.9h0a3.3,3.3,0,0,1,3.3,3.3V58.7a0,0,0,0,1,0,0H28.1a0,0,0,0,1,0,0V35.2A3.3,3.3,0,0,1,31.4,31.9Z" transform="translate(86.5 43) rotate(122.3)"/><circle class="cls-2" cx="43.7" cy="13.5" r="13.5"/><circle class="cls-3" cx="43.7" cy="13.5" r="7.6"/><circle class="cls-2" cx="13.5" cy="32.9" r="13.5" transform="matrix(0.58, -0.82, 0.82, 0.58, -21.19, 25.01)"/><circle class="cls-3" cx="13.5" cy="32.9" r="7.6"/><circle class="cls-2" cx="43.4" cy="46.5" r="13.5"/><path class="cls-4" d="M49.8,44.4H45.4V40a2.1,2.1,0,1,0-4.1,0v4.4H36.9a2.1,2.1,0,1,0,0,4.1h4.4V53a2.1,2.1,0,1,0,4.1,0V48.5h4.4a2.1,2.1,0,1,0,0-4.1Z"/></g></g></svg>