<svg xmlns="http://www.w3.org/2000/svg" viewBox="0 0 60.9 59.3"><defs><style>.cls-1{fill:#a0132b;}.cls-2{fill:#ef3f4c;}</style></defs><title>Asset 4icons</title><g id="Layer_2" data-name="Layer 2"><g id="Layer_1-2" data-name="Layer 1"><path class="cls-1" d="M58.1,0H2.9A2.9,2.9,0,0,0,0,2.9V56.4a2.9,2.9,0,0,0,2.9,2.9H58.1a2.8,2.8,0,0,0,2.8-2.9V2.9A2.8,2.8,0,0,0,58.1,0ZM54,50.4a2.2,2.2,0,0,1-2.2,2.2H9.1a2.2,2.2,0,0,1-2.2-2.2V9A2.2,2.2,0,0,1,9.1,6.7H51.8A2.2,2.2,0,0,1,54,9Z"/><path class="cls-2" d="M14.4,47.1h0s.8-7,2.9-9.1L39.4,15.8c2.1-2.1,5.2-2.4,7-.6h0c1.7,1.7,1.4,4.8-.7,6.9L23.6,44.3C21.5,46.3,14.4,47.1,14.4,47.1Z"/></g></g></svg>