<?xml version="1.0" encoding="utf-8"?>
<!-- Generator: Adobe Illustrator 23.0.0, SVG Export Plug-In . SVG Version: 6.00 Build 0)  -->
<svg version="1.1" id="Layer_1" xmlns="http://www.w3.org/2000/svg" xmlns:xlink="http://www.w3.org/1999/xlink" x="0px" y="0px"
	 viewBox="0 0 128 128" style="enable-background:new 0 0 128 128;" xml:space="preserve">
<style type="text/css">
	.st0{fill:#272E38;}
	.st1{fill:#007A63;}
</style>
<g>
	<path class="st0" d="M-85.1,47.2c-8.3,0-15,6.7-15,15s6.7,15,15,15c1.1,0,2.3-0.1,3.3-0.4c-1.5-1.3-2.5-3.3-2.5-5.6
		c0-4,3.3-7.4,7.4-7.4c2.4,0,4.7,1.2,6,3.1c0.5-1.5,0.8-3.1,0.8-4.8C-70.1,53.9-76.8,47.2-85.1,47.2z"/>
	<path class="st0" d="M-83.8,28.5L-83.8,28.5c-0.1,0-0.1,0-0.2,0s-0.1,0-0.2,0l0,0c-34.8,0.2-63,33.5-63,33.5s28.2,33.3,63.1,33.5
		l0,0c0.1,0,0.1,0,0.2,0c0.1,0,0.1,0,0.2,0l0,0C-49,95.3-20.8,62-20.8,62S-49,28.7-83.8,28.5z M-85.5,84.9
		c-13.8,0-24.9-11.1-24.9-24.9s11.1-24.9,24.9-24.9S-60.6,46.2-60.6,60S-71.8,84.9-85.5,84.9z"/>
</g>
<g>
	<path class="st1" d="M117.7,68.8C116,40.7,92.8,18.1,64.7,16.9c-4.9-0.2-9.7,0.2-14.3,1.2l5.3-5.3c2.7-2.7,2.7-7,0-9.6
		c-1.3-1.3-3.1-2-4.8-2s-3.5,0.7-4.8,2L21,28.3l28.7,28.5c2.7,2.6,7,2.6,9.6,0c2.6-2.7,2.6-7,0-9.6L49,36.9
		c4.3-1.6,8.9-2.5,13.8-2.4c19.8,0.2,36.5,16.2,37.5,36c1.1,21.8-16.3,39.9-37.9,39.9c-3.3,0-6.6-0.4-9.6-1.3c-4.1-1.1-8.3,1-10,4.8
		l-0.1,0.2c-2.2,5,0.5,10.7,5.7,12.1c4.5,1.2,9.2,1.8,14,1.8C94.2,128,119.8,101.1,117.7,68.8z"/>
	<path class="st1" d="M28.7,51.2L28.7,51.2c3.9,0,7.1,3.2,7.1,7.1l0,34.6c0,3.9-3.2,7.1-7.1,7.1h0c-3.9,0-7.1-3.2-7.1-7.1l0-34.6
		C21.5,54.4,24.7,51.2,28.7,51.2z"/>
	<ellipse transform="matrix(0.8799 -0.4752 0.4752 0.8799 -49.1997 27.156)" class="st1" cx="29.1" cy="110.9" rx="7.1" ry="7.1"/>
</g>
</svg>
