<svg xmlns="http://www.w3.org/2000/svg" viewBox="0 0 435.6 48.8"><defs><style>.cls-1{fill:#e30016;}.cls-2{fill:#4c4c4c;}.cls-3{fill:#e5e5e5;fill-rule:evenodd;}</style></defs><title>Asset 1icons</title><g id="Layer_2" data-name="Layer 2"><g id="Layer_1-2" data-name="Layer 1"><path class="cls-1" d="M21.9.7v8H15.1v21H6.8V8.7H0V.7Z"/><path class="cls-1" d="M39.4,29.6l-4.6-9.1H32.7v9.1H24.4V.6H36a11.7,11.7,0,0,1,7.9,2.8A9.4,9.4,0,0,1,47,10.8a8.8,8.8,0,0,1-1.2,4.6,9.8,9.8,0,0,1-3.3,3.4l5.7,10.8ZM32.7,8.2v5.4h3.2A3.1,3.1,0,0,0,38,13a2.7,2.7,0,0,0,.7-2A2.4,2.4,0,0,0,38,9a3.2,3.2,0,0,0-2.1-.8Z"/><path class="cls-1" d="M58.6,22H69.4v7.7H50.3V.7H69.2V8.2H58.6v3.1h9.5v7.5H58.6Z"/><path class="cls-1" d="M81,22H91.7v7.7h-19V.7H91.5V8.2H81v3.1h9.5v7.5H81Z"/><path class="cls-1" d="M120.1,25.9a14.7,14.7,0,0,1-10.9,4.4,14.5,14.5,0,0,1-10.9-4.4,14.4,14.4,0,0,1-4.5-10.7A14.4,14.4,0,0,1,98.3,4.4,14.9,14.9,0,0,1,109.2,0a15.1,15.1,0,0,1,10.9,4.4,14.7,14.7,0,0,1,4.4,10.8A14.6,14.6,0,0,1,120.1,25.9Zm-16-5.7a6.9,6.9,0,0,0,5.1,2,6.9,6.9,0,0,0,5-2,6.5,6.5,0,0,0,2-5,6.7,6.7,0,0,0-2-5.1,6.9,6.9,0,0,0-5-2,6.9,6.9,0,0,0-5.1,2,7.1,7.1,0,0,0-2,5.1A6.9,6.9,0,0,0,104.1,20.2Z"/><path class="cls-1" d="M143.4.7h8.3v29H145l-9.1-13.3V29.7h-8.3V.7h6.7l9.1,13.2Z"/><path class="cls-1" d="M164.1,22h10.7v7.7h-19V.7h18.8V8.2H164.1v3.1h9.5v7.5h-9.5Z"/><path class="cls-2" d="M196.9,30.3a13.9,13.9,0,0,1-7.9-2,9.2,9.2,0,0,1-4.2-5.3l7.1-4.1a5.1,5.1,0,0,0,5.2,3.7c1.9,0,2.8-.5,2.8-1.5a1.4,1.4,0,0,0-.2-.7,1.8,1.8,0,0,0-.8-.6l-1-.4-1.5-.4-1.6-.5q-8.7-2.5-8.7-9.3A8.5,8.5,0,0,1,189,2.6,10.9,10.9,0,0,1,196.6,0a13.5,13.5,0,0,1,6.6,1.7,10.6,10.6,0,0,1,4.2,5.1l-6.8,4c-.8-2.1-2.2-3.1-4-3.1a2.4,2.4,0,0,0-1.6.4,1.4,1.4,0,0,0-.6,1.1,1.5,1.5,0,0,0,1,1.4,16.1,16.1,0,0,0,3.7,1.3l3.4,1.2a16.4,16.4,0,0,1,2.8,1.6,6.2,6.2,0,0,1,2.2,2.6,10.6,10.6,0,0,1,.7,3.7,8.1,8.1,0,0,1-3.1,6.9C203.1,29.5,200.4,30.3,196.9,30.3Z"/><path class="cls-2" d="M235.7,25.9a14.7,14.7,0,0,1-10.9,4.4,14.5,14.5,0,0,1-10.9-4.4,14.4,14.4,0,0,1-4.5-10.7,14.4,14.4,0,0,1,4.5-10.8A14.9,14.9,0,0,1,224.8,0a15.1,15.1,0,0,1,10.9,4.4,14.4,14.4,0,0,1,4.5,10.8A14.4,14.4,0,0,1,235.7,25.9Zm-16-5.7a7.5,7.5,0,0,0,10.2,0,6.9,6.9,0,0,0,2-5,7.1,7.1,0,0,0-2-5.1,7.5,7.5,0,0,0-10.2,0,7.1,7.1,0,0,0-2,5.1A6.9,6.9,0,0,0,219.7,20.2Z"/><path class="cls-2" d="M261.3,8.7h-9.8v3.8h9.6v8h-9.6v9.2h-8.2V.7h18Z"/><path class="cls-2" d="M284.9.7v8h-6.8v21h-8.3V8.7h-6.9V.7Z"/><path class="cls-2" d="M293.7,29.7,285.5.7h9.1l4,15.9L303.2.7h6.4l4.7,15.9L318.2.7h9.1l-8.2,29H311l-4.6-15.5-4.5,15.5Z"/><path class="cls-2" d="M344.5,29.7l-1-3.8h-8.3l-1,3.8h-8.9l9.2-29h9.7l9.2,29Zm-7.6-10.4h4.8l-2.4-8.9Z"/><path class="cls-2" d="M370,29.6l-4.6-9.1h-2v9.1h-8.3V.6h11.6a11.3,11.3,0,0,1,7.8,2.8,9.5,9.5,0,0,1,3.2,7.4,8.8,8.8,0,0,1-1.2,4.6,9.8,9.8,0,0,1-3.3,3.4l5.7,10.8ZM363.4,8.2v5.4h3.1a2.8,2.8,0,0,0,2.1-.6,2.8,2.8,0,0,0,.8-2,2.5,2.5,0,0,0-.8-2,2.9,2.9,0,0,0-2.1-.8Z"/><path class="cls-2" d="M389.2,22H400v7.7H381V.7h18.8V8.2H389.2v3.1h9.6v7.5h-9.6Z"/><path class="cls-2" d="M413.8,30.3a13.9,13.9,0,0,1-7.9-2,9.2,9.2,0,0,1-4.2-5.3l7.1-4.1a5.1,5.1,0,0,0,5.2,3.7c1.8,0,2.8-.5,2.8-1.5a1.4,1.4,0,0,0-.2-.7l-.8-.6-1-.4-1.5-.4-1.6-.5Q403,16,403,9.2a8.5,8.5,0,0,1,2.9-6.6A10.9,10.9,0,0,1,413.4,0,13,13,0,0,1,420,1.7a10.3,10.3,0,0,1,4.3,5.1l-6.8,4c-.9-2.1-2.2-3.1-4-3.1a2.9,2.9,0,0,0-1.7.4,1.6,1.6,0,0,0-.5,1.1,1.5,1.5,0,0,0,1,1.4,16.1,16.1,0,0,0,3.7,1.3l3.4,1.2a16.4,16.4,0,0,1,2.8,1.6,5.9,5.9,0,0,1,2.1,2.6,8.7,8.7,0,0,1,.8,3.7,8.1,8.1,0,0,1-3.1,6.9A12.9,12.9,0,0,1,413.8,30.3Z"/><path class="cls-2" d="M434.2,28.9a4.5,4.5,0,0,1-3.3,1.4,4.6,4.6,0,0,1-3.4-1.4,4.8,4.8,0,0,1-1.4-3.4,4.9,4.9,0,0,1,1.4-3.4,4.6,4.6,0,0,1,3.4-1.4,4.8,4.8,0,0,1,4.7,4.8A4.4,4.4,0,0,1,434.2,28.9Z"/><path class="cls-3" d="M19.5,10Z"/><path class="cls-3" d="M127.2,30Z"/><path class="cls-3" d="M198.2,48.7h0Z"/><path class="cls-3" d="M232.3,4.7h0Z"/><path class="cls-3" d="M339.4,41c-.1.1-.1.1-.1.2h.2c.1,0,.1-.1,0-.1A.1.1,0,0,0,339.4,41Z"/><path class="cls-3" d="M409.8,31.3c-.1,0-.1.1-.1.2h.3a.2.2,0,0,0,0-.3C410,31.2,409.9,31.2,409.8,31.3Z"/></g></g></svg>