<svg xmlns="http://www.w3.org/2000/svg" viewBox="0 0 61.2 52"><defs><style>.cls-1{fill:#5e437a;}.cls-2{fill:#805aa5;}</style></defs><title>Asset 1</title><g id="Layer_2" data-name="Layer 2"><g id="Layer_1-2" data-name="Layer 1"><g id="Layer_1-2-2" data-name="Layer 1-2"><circle class="cls-1" cx="31.4" cy="37.4" r="13.5"/></g><path class="cls-1" d="M30.6,52C17.2,52,5.9,41.1,1.7,36.5a6.9,6.9,0,0,1,0-9.1c4.2-4.6,15.5-15.5,28.9-15.5S55.3,22.8,59.5,27.4h0a6.9,6.9,0,0,1,0,9.1C55.3,41.1,44.1,52,30.6,52ZM6.9,31.9c3.9,4.3,12.7,13.7,23.7,13.7S50.5,36,54.1,31.9c-3.6-4-12.4-13.7-23.5-13.7S10.8,27.7,6.9,31.9Zm48.6.2h0Z"/><path class="cls-2" d="M31.4,33.8a8.5,8.5,0,0,1,8.2,6.1,6.9,6.9,0,0,0,.4-2.5,8.6,8.6,0,0,0-17.2,0,10.1,10.1,0,0,0,.3,2.5A8.7,8.7,0,0,1,31.4,33.8Z"/><path class="cls-2" d="M11,12.6A2.8,2.8,0,0,1,9.1,7.8l.8-.6c5.3-3.8,23.2-14.3,42,.3a2.8,2.8,0,0,1,.4,4,2.7,2.7,0,0,1-3.9.4C33,0,18.6,7.9,13.1,11.9A4,4,0,0,1,11,12.6Zm2.2-.9Z"/></g></g></svg>