<svg id="Layer_1" data-name="Layer 1" xmlns="http://www.w3.org/2000/svg" viewBox="0 0 64 64"><defs><style>.cls-1{fill:#f44336;}.cls-2{fill:#fff;}.cls-3{fill:none;}.cls-4{fill:#ffca28;}</style></defs><title>kp MANISH</title><path class="cls-1" d="M32,.4h0A31.5,31.5,0,0,1,63.5,31.9V55.4a8,8,0,0,1-8,8H32A31.5,31.5,0,0,1,.5,31.9v0A31.5,31.5,0,0,1,32,.4Z"/><polygon class="cls-2" points="23.9 48.8 43.4 63.6 54.3 63.6 28.2 43 23.9 48.8"/><line class="cls-3" x1="41.6" y1="60.1" x2="45.7" y2="55.9"/><path class="cls-2" d="M26.3,43a9.1,9.1,0,0,1-5.7-8.4,9.2,9.2,0,0,1,2.1-5.9L17.6,24a16.3,16.3,0,0,0,.7,21.9A20,20,0,0,0,22,48.7Z"/><path class="cls-2" d="M22.2,20.4l4.3,4.8L45.9,7.8a.8.8,0,0,0-.5-1.4H13.1A34.4,34.4,0,0,0,6.5,13H30.4Z"/><path class="cls-4" d="M43,22.3a16.5,16.5,0,0,0-11.7-4.8,16.7,16.7,0,0,0-12.2,5.4l5.2,4.8a9.5,9.5,0,1,1,7,15.8,9.9,9.9,0,0,1-3-.5l-4.4,5.8a15.9,15.9,0,0,0,7.4,1.8A16.2,16.2,0,0,0,43,45.7,16.6,16.6,0,0,0,47.9,34,16.8,16.8,0,0,0,43,22.3Z"/></svg>