<svg id="Layer_1" data-name="Layer 1" xmlns="http://www.w3.org/2000/svg" viewBox="0 0 64 64"><defs><style>.cls-1{fill:#ef6c00;}.cls-2{fill:#ff9800;}</style></defs><title>kp MANISH</title><path class="cls-1" d="M49.6,34.1,32,30.8l-5.9-17-5.8,1.9,5.9,16.9L14.4,46.3l4.5,3.9L30.8,36.6l17.6,3.3Z"/><path class="cls-2" d="M32,24.4A7.6,7.6,0,1,0,39.6,32,7.5,7.5,0,0,0,32,24.4ZM32,35a3,3,0,1,1,3-3A2.9,2.9,0,0,1,32,35Z"/><path class="cls-2" d="M57.4,36.6a24.5,24.5,0,0,0,.4-4.6,24.5,24.5,0,0,0-.4-4.6l5-3.6a1.6,1.6,0,0,0,.4-2.1L56.3,10.4a1.5,1.5,0,0,0-2-.6l-5.6,2.5a26,26,0,0,0-7.9-4.6l-.6-6.2A1.6,1.6,0,0,0,38.7.1H25.6a1.5,1.5,0,0,0-1.5,1.4l-.9,6.2a26,26,0,0,0-7.9,4.6L9.7,9.7a1.6,1.6,0,0,0-2,.7L1.2,21.7a1.6,1.6,0,0,0,.4,2.1l5,3.6A24.5,24.5,0,0,0,6.2,32a24.5,24.5,0,0,0,.4,4.6l-5,3.6a1.6,1.6,0,0,0-.4,2.1L7.7,53.6a1.5,1.5,0,0,0,2,.6l5.6-2.5a26,26,0,0,0,7.9,4.6l.6,6.2a1.6,1.6,0,0,0,1.5,1.4H38.4a1.5,1.5,0,0,0,1.5-1.4l.6-6.2a26,26,0,0,0,7.9-4.6L54,54.3a1.6,1.6,0,0,0,2-.6l6.5-11.2a1.5,1.5,0,0,0-.4-2.1ZM32,48.7A16.7,16.7,0,1,1,48.7,32,16.6,16.6,0,0,1,32,48.7Z"/></svg>