<svg id="Layer_1" data-name="Layer 1" xmlns="http://www.w3.org/2000/svg" viewBox="0 0 64 64"><defs><style>.cls-1{fill:#ff9800;}.cls-2{fill:#ffa726;}.cls-3{fill:#ffb74d;}.cls-4{fill:#424242;}.cls-5{fill:#fff;}.cls-6{fill:#d32f2f;}.cls-7{fill:#546e7a;}</style></defs><title>kp MANISH</title><polygon class="cls-1" points="32 52.7 24 43.1 24 33.6 40 33.6 40 43.1 32 52.7"/><circle class="cls-2" cx="46.3" cy="24" r="3.2"/><circle class="cls-2" cx="17.7" cy="24" r="3.2"/><path class="cls-3" d="M46.3,14.5c0-12.1-28.6-8-28.6,0V25.6a14.3,14.3,0,1,0,28.6,0Z"/><path class="cls-4" d="M32,.1C22.3.1,16.1,8,16.1,17.7v3.6L19.3,24V16.1L38.4,9.7l6.3,6.4V24l3.2-2.7V17.7c0-6.4-1.6-12.8-9.5-14.4L36.8.1Z"/><polygon class="cls-5" points="32 62.3 24 43.1 32 44.7 40 43.1 32 62.3"/><polygon class="cls-6" points="30.4 49.5 29.3 56.7 32 63.1 34.7 56.7 33.6 49.5 35.2 47.9 32 44.7 28.8 47.9 30.4 49.5"/><path class="cls-7" d="M40,43.1h0L32,62.3,24,43.1S6.5,46.3,6.5,63.9h51C57.5,46.3,40,43.1,40,43.1Z"/></svg>