<svg id="Layer_1" data-name="Layer 1" xmlns="http://www.w3.org/2000/svg" viewBox="0 0 64 64"><defs><style>.cls-1{fill:#3f51b5;}</style></defs><title>kp MANISH</title><polygon class="cls-1" points="43.6 6.1 63.3 8.8 47.1 25 43.6 6.1"/><polygon class="cls-1" points="20.5 59.1 0.8 56.4 17 40.2 20.5 59.1"/><polygon class="cls-1" points="5.6 21 8.2 1.3 24.4 17.5 5.6 21"/><path class="cls-1" d="M7.7,28,.8,29.3a17.7,17.7,0,0,0-.2,3.3A30.6,30.6,0,0,0,8.2,53.1l5-4.3a25.1,25.1,0,0,1-6-16.2A24,24,0,0,1,7.7,28Z"/><path class="cls-1" d="M32,1.1A31.7,31.7,0,0,0,9.4,10.9L14,15.5A24.7,24.7,0,0,1,32,7.8a18.8,18.8,0,0,1,4.7.5l1.1-6.5A22,22,0,0,0,32,1.1Z"/><path class="cls-1" d="M56.4,37.2l6.9-1.3a18.3,18.3,0,0,0,.2-3.3,31.5,31.5,0,0,0-7.1-20l-5.2,4.1a24.9,24.9,0,0,1,5.7,15.7A24.4,24.4,0,0,1,56.4,37.2Z"/><path class="cls-1" d="M50.1,49.6A24.8,24.8,0,0,1,32,57.4a18.5,18.5,0,0,1-4.6-.5l-1.1,6.5a37.7,37.7,0,0,0,5.7.5,31.3,31.3,0,0,0,22.7-9.8Z"/><polygon class="cls-1" points="58.5 44.2 55.9 63.9 39.7 47.7 58.5 44.2"/></svg>