<svg id="Layer_1" data-name="Layer 1" xmlns="http://www.w3.org/2000/svg" viewBox="0 0 64 64"><defs><style>.cls-1{fill:#90caf9;}.cls-2{fill:#283593;}.cls-3{fill:#3f51b5;}.cls-4{fill:#42a5f5;}</style></defs><title>kp MANISH</title><path class="cls-1" d="M22.1,46H18.3V39.6h6.4l.7,2.4A3.3,3.3,0,0,1,22.1,46Z"/><path class="cls-1" d="M53.8,50.9S34.7,39.6,24.7,39.6V17C34.1,17,53.8,5.7,53.8,5.7Z"/><circle class="cls-2" cx="8.6" cy="28.3" r="8.1"/><path class="cls-2" d="M58.7,23.4H53.8v9.7h4.9a4.9,4.9,0,0,0,0-9.7Z"/><path class="cls-2" d="M24.1,59.3a16.6,16.6,0,0,1-7.4,2.2,2,2,0,0,1-2.3-1.6L7.3,37.8s14.2-10,14.2,1.8c0,8.9,2.4,13.5,3.6,15.3a3.2,3.2,0,0,1,0,3.7A4.6,4.6,0,0,1,24.1,59.3Z"/><path class="cls-3" d="M8.6,39.6H24.7V17H8.6a3.2,3.2,0,0,0-3.3,3.2V36.3A3.3,3.3,0,0,0,8.6,39.6Z"/><path class="cls-4" d="M55.4,54.1h0a3.2,3.2,0,0,1-3.2-3.2V5.7a3.2,3.2,0,0,1,3.2-3.3h0a3.3,3.3,0,0,1,3.3,3.3V50.9A3.2,3.2,0,0,1,55.4,54.1Z"/></svg>