<svg id="Layer_1" data-name="Layer 1" xmlns="http://www.w3.org/2000/svg" viewBox="0 0 64 64"><defs><style>.cls-1{fill:#78909c;}.cls-2{fill:#aed581;}.cls-3{fill:#558b2f;}.cls-4{fill:#cfd8dc;}</style></defs><title>kp MANISH</title><path class="cls-1" d="M56.6,63.5H7.4a6.1,6.1,0,0,1-6.1-6.1V25.2a6,6,0,0,1,2.6-5L32,.5,60.1,20.2a5.7,5.7,0,0,1,2.6,5V57.4A6.1,6.1,0,0,1,56.6,63.5Z"/><rect class="cls-2" x="16.6" y="2" width="30.7" height="47.63"/><path class="cls-3" d="M15.1.5V51.2H48.9V.5ZM45.8,48.1H18.2V3.6H45.8Z"/><path class="cls-3" d="M47.4,5.1c0,2.6-.5,4.6-3.1,4.6a4.5,4.5,0,0,1-4.6-4.6c0-2.6,2-3.1,4.6-3.1S47.4,2.5,47.4,5.1Z"/><path class="cls-3" d="M19.7,2c2.6,0,4.6.5,4.6,3.1a4.5,4.5,0,0,1-4.6,4.6c-2.6,0-3.1-2-3.1-4.6S17.1,2,19.7,2Z"/><circle class="cls-3" cx="32" cy="12.8" r="3.1"/><circle class="cls-3" cx="32" cy="31.2" r="9.2"/><path class="cls-4" d="M56.6,63.5H7.4a6.1,6.1,0,0,1-6.1-6.1V26.6L32,46.6l30.7-20V57.4A6.1,6.1,0,0,1,56.6,63.5Z"/></svg>